<svg width="128" height="128" viewBox="0 0 128 128" fill="none" xmlns="http://www.w3.org/2000/svg">
    <rect width="128" height="128" rx="8" fill="#5B9BD5"/>
    <path d="M50 32C45.5817 32 42 35.5817 42 40V88C42 92.4183 45.5817 96 50 96H78C82.4183 96 86 92.4183 86 88V40C86 35.5817 82.4183 32 78 32H50Z" fill="white"/>
    <path d="M55 48H73M55 56H73M55 64H68M55 72H64" stroke="#5B9BD5" stroke-width="3" stroke-linecap="round"/>
    <path d="M92 60C97.5228 60 102 55.5228 102 50C102 44.4772 97.5228 40 92 40C86.4772 40 82 44.4772 82 50C82 55.5228 86.4772 60 92 60Z" fill="#FFB900"/>
    <path d="M92 88C97.5228 88 102 83.5228 102 78C102 72.4772 97.5228 68 92 68C86.4772 68 82 72.4772 82 78C82 83.5228 86.4772 88 92 88Z" fill="#00A36C"/>
</svg>